<svg width="66" height="72" xmlns="http://www.w3.org/2000/svg">
    <!-- Created with Method Draw - http://github.com/duopixel/Method-Draw/ -->

    <g>
        <title>background</title>
        <rect fill="none" id="canvas_background" height="74" width="68" y="-1" x="-1"/>
        <g display="none" overflow="visible" y="0" x="0" height="100%" width="100%" id="canvasGrid">
            <rect fill="url(#gridpattern)" stroke-width="0" y="0" x="0" height="100%" width="100%"/>
        </g>
    </g>
    <g>
        <title>Layer 1</title>
        <g stroke="null" id="svg_21">
            <g stroke="null" transform="matrix(0.6362000959082266,0,0,0.6362000959082266,-2.1515740091172266e-8,0) "
               id="svg_5">
                <path stroke="null" id="svg_6"
                      d="m39.5,53.023941l10.1,0l0,-11.7l-10.1,0l0,11.7zm3.5,-8.2l3.1,0l0,4.7l-3.1,0l0,-4.7z"
                      fill="#3c739a"/>
                <path stroke="null" id="svg_7"
                      d="m54.2,53.023941l10.1,0l0,-11.7l-10.1,0l0,11.7zm3.5,-8.2l3.1,0l0,4.7l-3.1,0l0,-4.7z"
                      fill="#3c739a"/>
                <path stroke="null" id="svg_8"
                      d="m39.5,69.423941l10.1,0l0,-11.7l-10.1,0l0,11.7zm3.5,-8.2l3.1,0l0,4.7l-3.1,0l0,-4.7z"
                      fill="#3c739a"/>
                <path stroke="null" id="svg_9"
                      d="m54.2,69.423941l10.1,0l0,-11.7l-10.1,0l0,11.7zm3.5,-8.2l3.1,0l0,4.7l-3.1,0l0,-4.7z"
                      fill="#3c739a"/>
                <path stroke="null" id="svg_10"
                      d="m39.5,85.823941l10.1,0l0,-11.8l-10.1,0l0,11.8zm3.5,-8.3l3.1,0l0,4.7l-3.1,0l0,-4.7z"
                      fill="#3c739a"/>
                <path stroke="null" id="svg_11"
                      d="m54.2,85.823941l10.1,0l0,-11.8l-10.1,0l0,11.8zm3.5,-8.3l3.1,0l0,4.7l-3.1,0l0,-4.7z"
                      fill="#3c739a"/>
                <path stroke="null" id="svg_12"
                      d="m39.5,102.223941l10.1,0l0,-11.8l-10.1,0l0,11.8zm3.5,-8.3l3.1,0l0,4.7l-3.1,0l0,-4.7z"
                      fill="#3c739a"/>
                <path stroke="null" id="svg_13"
                      d="m54.2,102.223941l10.1,0l0,-11.8l-10.1,0l0,11.8zm3.5,-8.3l3.1,0l0,4.7l-3.1,0l0,-4.7z"
                      fill="#3c739a"/>
                <path stroke="null" id="svg_14"
                      d="m78.4,75.923941l9.1,0l0,-8.3l-9.1,0l0,8.3zm3.5,-4.8l2.1,0l0,1.3l-2.1,0l0,-1.3z"
                      fill="#3c739a"/>
                <path stroke="null" id="svg_15"
                      d="m78.4,87.623941l9.1,0l0,-8.3l-9.1,0l0,8.3zm3.5,-4.8l2.1,0l0,1.3l-2.1,0l0,-1.3z"
                      fill="#3c739a"/>
                <path stroke="null" id="svg_16"
                      d="m78.4,99.323941l9.1,0l0,-8.3l-9.1,0l0,8.3zm3.5,-4.8l2.1,0l0,1.3l-2.1,0l0,-1.3z"
                      fill="#3c739a"/>
                <path stroke="null" id="svg_17"
                      d="m102.1,109.223941l-6.9,0c0.1,-0.3 0.2,-0.7 0.2,-1.1l0,-45.3c0,-2.2 -1.8,-4 -4,-4l-2.3,0l0,-1.6c0,-1 -0.8,-1.8 -1.8,-1.8l-14.4,0c-1,0 -1.8,0.8 -1.8,1.8l0,52l-1.3,0l0,-77c0,-1.4 -1.2,-2.6 -2.6,-2.6l-1.6,0l-3,-3l0,-6.2c0,-1 -0.8,-1.8 -1.8,-1.8l-3.5,0l0,-7.8c0,-1 -0.8,-1.8 -1.8,-1.8l-2,0l0,-6.7c0,-1 -0.8,-1.8 -1.8,-1.8s-1.8,0.8 -1.8,1.8l0,6.8l-2,0c-1,0 -1.8,0.8 -1.8,1.8l0,7.8l-3.5,0c-1,0 -1.8,0.8 -1.8,1.8l0,6.2l-3,3l-1.6,0c-1.4,0 -2.6,1.2 -2.6,2.6l0,77l-1.3,0l0,-59.3c0,-1 -0.8,-1.8 -1.8,-1.8l-13.2,0c-1,0 -1.8,0.8 -1.8,1.8l0,0.8l-0.1,0c-2.2,0 -4,1.8 -4,4l0,0.1l-0.1,0c-2.2,0 -4,1.8 -4,4l0,49.9c0,0.2 0,0.4 0.1,0.6l-5.6,0c-1,0 -1.8,0.8 -1.8,1.8s0.8,1.8 1.8,1.8l100.3,0c1,0 1.8,-0.8 1.8,-1.8s-0.9,-2 -1.8,-2zm-72.9,-0.2l-17.7,0c-0.2,0 -0.5,-0.2 -0.5,-0.5l0,-49.8c0,-0.2 0.2,-0.5 0.5,-0.5l1.8,0c1,0 1.8,-0.8 1.8,-1.8l0,-1.8c0,-0.2 0.2,-0.5 0.5,-0.5l1.8,0c1,0 1.8,-0.8 1.8,-1.8l0,-0.8l10.2,0l0,57.5l-0.2,0zm37.1,-0.5l-28.8,0l0,-75.5l1.4,0c0.5,0 0.9,-0.2 1.2,-0.5l4,-4c0.3,-0.3 0.5,-0.8 0.5,-1.2l0,-5.2l3.5,0c1,0 1.8,-0.8 1.8,-1.8l0,-7.8l4.1,0l0,7.8c0,1 0.8,1.8 1.8,1.8l3.5,0l0,5.2c0,0.5 0.2,0.9 0.5,1.2l4,4c0.3,0.3 0.8,0.5 1.2,0.5l1.4,0l0,75.5l-0.1,0zm25.5,-0.4c0,0.2 -0.2,0.5 -0.5,0.5l-16.7,0l0,-49.7l11,0l0,1.6c0,1 0.8,1.8 1.8,1.8l4,0c0.2,0 0.5,0.2 0.5,0.5l0,45.3l-0.1,0z"
                      fill="#3c739a"/>
                <path stroke="null" id="svg_18"
                      d="m14.8,73.223941l9.9,0l0,-9.2l-9.9,0l0,9.2zm3.5,-5.7l2.9,0l0,2.2l-2.9,0l0,-2.2z"
                      fill="#3c739a"/>
                <path stroke="null" id="svg_19"
                      d="m14.8,86.123941l9.9,0l0,-9.2l-9.9,0l0,9.2zm3.5,-5.7l2.9,0l0,2.2l-2.9,0l0,-2.2z"
                      fill="#3c739a"/>
                <path stroke="null" id="svg_20"
                      d="m14.8,99.023941l9.9,0l0,-9.2l-9.9,0l0,9.2zm3.5,-5.7l2.9,0l0,2.2l-2.9,0l0,-2.2z"
                      fill="#3c739a"/>
            </g>
        </g>
    </g>
</svg>