<svg width="69" height="72" xmlns="http://www.w3.org/2000/svg">
    <!-- Created with Method Draw - http://github.com/duopixel/Method-Draw/ -->

    <g>
        <title>background</title>
        <rect fill="none" id="canvas_background" height="74" width="71" y="-1" x="-1"/>
        <g display="none" overflow="visible" y="0" x="0" height="100%" width="100%" id="canvasGrid">
            <rect fill="url(#gridpattern)" stroke-width="0" y="0" x="0" height="100%" width="100%"/>
        </g>
    </g>
    <g>
        <title>Layer 1</title>
        <g stroke="null" id="svg_38">
            <g stroke="null"
               transform="matrix(0.6344964330331044,0,0,0.6344964330331044,-12.156077735422457,-13.057124544860812) "
               id="svg_26">
                <path stroke="null" id="svg_27"
                      d="m62.419768,73.746243l10.1,0l0,-11.7l-10.1,0l0,11.7zm3.5,-8.2l3.1,0l0,4.7l-3.1,0l0,-4.7z"
                      fill="#3c739a"/>
                <path stroke="null" id="svg_28"
                      d="m77.119768,73.746243l10.1,0l0,-11.7l-10.1,0l0,11.7zm3.5,-8.2l3.1,0l0,4.7l-3.1,0l0,-4.7z"
                      fill="#3c739a"/>
                <path stroke="null" id="svg_29"
                      d="m77.119768,90.146243l10.1,0l0,-11.7l-10.1,0l0,11.7zm3.5,-8.2l3.1,0l0,4.7l-3.1,0l0,-4.7z"
                      fill="#3c739a"/>
                <path stroke="null" id="svg_30"
                      d="m77.119768,106.546243l10.1,0l0,-11.8l-10.1,0l0,11.8zm3.5,-8.3l3.1,0l0,4.7l-3.1,0l0,-4.7z"
                      fill="#3c739a"/>
                <path stroke="null" id="svg_31"
                      d="m62.419768,122.946243l10.1,0l0,-11.8l-10.1,0l0,11.8zm3.5,-8.3l3.1,0l0,4.7l-3.1,0l0,-4.7z"
                      fill="#3c739a"/>
                <path stroke="null" id="svg_32"
                      d="m77.119768,122.946243l10.1,0l0,-11.8l-10.1,0l0,11.8zm3.5,-8.3l3.1,0l0,4.7l-3.1,0l0,-4.7z"
                      fill="#3c739a"/>
                <path stroke="null" id="svg_33"
                      d="m101.319768,96.646243l9.1,0l0,-8.3l-9.1,0l0,8.3zm3.5,-4.8l2.1,0l0,1.3l-2.1,0l0,-1.3z"
                      fill="#3c739a"/>
                <path stroke="null" id="svg_34"
                      d="m101.319768,108.346243l9.1,0l0,-8.3l-9.1,0l0,8.3zm3.5,-4.8l2.1,0l0,1.3l-2.1,0l0,-1.3z"
                      fill="#3c739a"/>
                <path stroke="null" id="svg_35"
                      d="m101.319768,120.046243l9.1,0l0,-8.3l-9.1,0l0,8.3zm3.5,-4.8l2.1,0l0,1.3l-2.1,0l0,-1.3z"
                      fill="#3c739a"/>
                <path stroke="null" id="svg_36"
                      d="m125.019768,129.946243l-6.9,0c0.1,-0.3 0.2,-0.7 0.2,-1.1l0,-45.3c0,-2.2 -1.8,-4 -4,-4l-2.3,0l0,-1.6c0,-1 -0.8,-1.8 -1.8,-1.8l-14.5,0c-1,0 -1.8,0.8 -1.8,1.8l0,52l-1.3,0l0,-77c0,-0.4 -0.1,-0.7 -0.2,-1c-0.1,-0.3 -0.3,-0.6 -0.6,-0.8c-0.2,-0.2 -0.5,-0.4 -0.8,-0.5c-0.3,-0.1 -0.7,-0.2 -1,-0.2l-1.6,0l-3,-3l0,-6.2c0,-1 -0.8,-1.8 -1.8,-1.8l-3.5,0l0,-7.8c0,-1 -0.8,-1.8 -1.8,-1.8l-2,0l0,-6.8c0.3,-1 -0.5,-1.8 -1.5,-1.8s-1.8,0.8 -1.8,1.8l0,6.8l-2,0c-1,0 -1.8,0.8 -1.8,1.8l0,7.8l-3.5,0c-1,0 -1.8,0.8 -1.8,1.8l0,6.2l-3,3l-1.6,0c-0.3,0 -0.7,0.1 -1,0.2c-0.3,0.1 -0.6,0.3 -0.8,0.6c-0.2,0.2 -0.4,0.5 -0.5,0.8c-0.1,0.3 -0.2,0.7 -0.2,1l0,25.2c-0.4,-0.1 -0.9,-0.2 -1.3,-0.4l0,-7.2c0,-1 -0.8,-1.8 -1.8,-1.8l-13.5,0c-1,0 -1.8,0.8 -1.8,1.8l0,0.8l-0.1,0c-0.5,0 -1.1,0.1 -1.5,0.3c-0.5,0.2 -0.9,0.5 -1.3,0.8c-0.4,0.4 -0.6,0.8 -0.8,1.3c-0.2,0.5 -0.3,1 -0.3,1.5l0,0.1l-0.1,0c-0.5,0 -1.1,0.1 -1.5,0.3c-0.5,0.2 -0.9,0.5 -1.3,0.9c-0.2,0.2 -0.4,0.5 -0.6,0.8c-2.2,0.8 -4.4,1.3 -6.7,1.8l-1.3,0.3c-1.8,0.3 -3.1,1.9 -3.1,3.7l0,7.7c0,9.6 3.7,18.6 10.5,25.4l0.1,0.1c0,0.1 0,0.3 0,0.4l0,12.5c0,0.2 0,0.4 0.1,0.6l-5.9,0c-1,0 -1.8,0.8 -1.8,1.8s0.8,1.8 1.8,1.8l100.3,0c1,0 1.8,-0.8 1.8,-1.8s-0.8,-1.8 -1.7,-1.8zm-83.1,-57.5l10.2,0l0,4.3c-2.7,-0.9 -5.3,-2 -7.8,-3.3c-0.7,-0.4 -1.5,-0.5 -2.3,-0.3l0,-0.7l-0.1,0zm10.2,57.3l-17.8,0c-0.1,0 -0.1,0 -0.2,0c-0.1,0 -0.1,-0.1 -0.1,-0.1c0,0 -0.1,-0.1 -0.1,-0.2c0,-0.1 0,-0.1 0,-0.2l0,-9.4l5.9,5.9c0.7,0.7 1.7,1.1 2.7,1.1c1,0 2,-0.4 2.7,-1.1l6.8,-6.8l0,10.8l0.1,0zm-9.3,-6.4c-0.2,0.2 -0.3,0.2 -0.5,0l-9.5,-9.5c-6.1,-6.1 -9.5,-14.2 -9.5,-22.9l0,-7.7c0,-0.2 0.1,-0.3 0.3,-0.3l1.3,-0.3c6.1,-1.2 12,-3.2 17.5,-6c0,0 0.1,0 0.2,0c0.1,0 0.1,0 0.2,0c5.5,2.8 11.4,4.8 17.5,6l1.3,0.3c0.2,0 0.3,0.2 0.3,0.3l0,7.7c0,8.6 -3.4,16.8 -9.5,22.9l-9.6,9.5zm14.1,6.6l-1.3,0l0,-14.5c0.4,-0.5 0.9,-1 1.3,-1.4l0,15.9zm32.3,-0.7l-28.8,0l0,-20.1c0.8,-1.3 1.5,-2.7 2.1,-4.1l0,1.5l10.1,0l0,-11.8l-7.5,0c0.1,-1.3 0.2,-2.5 0.2,-3.8l0,-0.9l7.3,0l0,-11.6l-10.2,0l0,1.2c-0.1,0 -0.2,-0.1 -0.3,-0.1l-1.2,-0.3c-0.2,0 -0.3,-0.1 -0.5,-0.1l0,-25.4l1.4,0c0.5,0 0.9,-0.2 1.2,-0.5l4,-4c0.3,-0.3 0.5,-0.8 0.5,-1.2l0,-5.2l3.5,0c1,0 1.8,-0.8 1.8,-1.8l0,-7.8l4,0l0,7.8c0,1 0.8,1.8 1.8,1.8l3.5,0l0,5.2c0,0.5 0.2,0.9 0.5,1.2l4,4c0.3,0.3 0.8,0.5 1.2,0.5l1.4,0l0,75.5zm-23.3,-26.2l0,-4.8l3.1,0l0,4.7l-3.1,0l0,0.1zm0,-16.4l0,-4.7l3.1,0l0,4.7l-3.1,0zm48.8,42.2c0,0.2 -0.2,0.5 -0.5,0.5l-16.7,0l0,-49.7l11,0l0,1.6c0,1 0.8,1.8 1.8,1.8l4,0c0.2,0 0.5,0.2 0.5,0.5l0,45.3l-0.1,0z"
                      fill="#3c739a"/>
                <path stroke="null" id="svg_37"
                      d="m51.019768,89.046243l-11,12.9l-5.4,-5.4c-0.7,-0.7 -1.8,-0.7 -2.5,0c-0.7,0.7 -0.7,1.8 0,2.5l6.7,6.7c0.3,0.3 0.8,0.5 1.2,0.5c0,0 0,0 0.1,0c0.5,0 0.9,-0.2 1.3,-0.6l12.2,-14.4c0.6,-0.7 0.5,-1.8 -0.2,-2.5c-0.7,-0.5 -1.8,-0.4 -2.4,0.3z"
                      fill="#3c739a"/>
            </g>
        </g>
    </g>
</svg>