<svg class="thumb" width="1000" height="1000" viewBox="0,0,600,600" xmlns="http://www.w3.org/2000/svg" xmlns:inkscape="http://www.inkscape.org/namespaces/inkscape" xmlns:sodipodi="http://sodipodi.sourceforge.net/DTD/sodipodi-0.dtd" xmlns:xlink="http://www.w3.org/1999/xlink" xmlns:ns1="http://www.inkscape.org/namespaces/inkscape" xmlns:sketch="http://www.bohemiancoding.com/sketch/ns">
  <defs></defs>
  <g transform="matrix(1.0254,0,0,1.0254,-30.7776,173.7578)">
    <g transform="matrix(1.5136,0,0,1.5136,337.4808,43.3752)">
      <svg width="42.861999999999995" height="55.68000000000001" viewBox="62.138000000000005,24,42.861999999999995,55.68000000000001">
        <defs>
          <linearGradient x1="0" y1="0.5" x2="1" y2="0.5" id="linearGradientSkf9hv0dh4">
            <stop offset="0%" stop-color="#ec4c4c"></stop>
            <stop offset="100%" stop-color="#ec4c4c"></stop>
          </linearGradient>
        </defs>
        <g></g>
        <g></g>
        <g></g>
        <g>
          <path d="M93.557,74.68C97.657,67.426,100,59.1,100,50.171C100,42.581,98.306,35,95.28,29H67.138L93.557,74.68z" fill="url('#linearGradientSkf9hv0dh4')" stroke="none" style=""></path>
        </g>
      </svg>
    </g>
    <g transform="matrix(1.5136,0,0,1.5136,235.724,38.6184)">
      <svg width="43.177" height="56.446" viewBox="-5,20.554,43.177,56.446">
        <defs>
          <linearGradient x1="0" y1="0.5" x2="1" y2="0.5" id="linearGradientSkf9hv0dha">
            <stop offset="0%" stop-color="#4c96d7"></stop>
            <stop offset="100%" stop-color="#4c96d7"></stop>
          </linearGradient>
        </defs>
        <g></g>
        <g></g>
        <g></g>
        <g>
          <path d="M6.431,25.554C2.338,32.804,0,41.222,0,50.142C0,57.962,1.797,65,4.998,72h28.179L6.431,25.554z" fill="url('#linearGradientSkf9hv0dha')" stroke="none" style=""></path>
        </g>
      </svg>
    </g>
    <g transform="matrix(1.5136,0,0,1.5136,296.5877,0.2683)">
      <svg width="63.14000000000001" height="34.701" viewBox="35.106,-4.7010000000000005,63.14000000000001,34.701">
        <defs>
          <linearGradient x1="0" y1="0.5" x2="1" y2="0.5" id="linearGradientSkf9hv0dhg">
            <stop offset="0%" stop-color="#f2af58"></stop>
            <stop offset="100%" stop-color="#f2af58"></stop>
          </linearGradient>
        </defs>
        <g></g>
        <g></g>
        <g></g>
        <g>
          <path d="M40.106,25h53.14c-7.97-14-22.26-23.262-38.877-24.701L40.106,25z" fill="url('#linearGradientSkf9hv0dhg')" stroke="none" style=""></path>
        </g>
      </svg>
    </g>
    <g transform="matrix(1.5136,0,0,1.5136,249.6694,0.6184)">
      <svg width="51.01" height="56.312" viewBox="3.8529999999999998,-4.994,51.01,56.312">
        <defs>
          <linearGradient x1="0" y1="0.5" x2="1" y2="0.5" id="linearGradientSkf9hv0dhm">
            <stop offset="0%" stop-color="#74d14c"></stop>
            <stop offset="100%" stop-color="#74d14c"></stop>
          </linearGradient>
        </defs>
        <g></g>
        <g></g>
        <g></g>
        <g>
          <path d="M23.125,46.318L49.863,0.006C32.858,0.052,17.851,8.588,8.853,21.598L23.125,46.318z" fill="url('#linearGradientSkf9hv0dhm')" stroke="none" style=""></path>
        </g>
      </svg>
    </g>
    <g transform="matrix(1.5136,0,0,1.5136,312.4262,82.3752)">
      <svg width="50.306" height="55.678" viewBox="45.816,49.316,50.306,55.678">
        <defs>
          <linearGradient x1="0" y1="0.5" x2="1" y2="0.5" id="linearGradientSkf9hv0dhs">
            <stop offset="0%" stop-color="#d65ab1"></stop>
            <stop offset="100%" stop-color="#d65ab1"></stop>
          </linearGradient>
        </defs>
        <g></g>
        <g></g>
        <g></g>
        <g>
          <path d="M77.189,54.316L50.816,99.994c16.709-0.268,31.424-8.729,40.306-21.544L77.189,54.316z" fill="url('#linearGradientSkf9hv0dhs')" stroke="none" style=""></path>
        </g>
      </svg>
    </g>
    <g transform="matrix(1.5136,0,0,1.5136,246.5877,115.2683)">
      <svg width="63.108000000000004" height="34.168000000000006" viewBox="2.101,71,63.108000000000004,34.168000000000006">
        <defs>
          <linearGradient x1="0" y1="0.5" x2="1" y2="0.5" id="linearGradientSkf9hv0dhy">
            <stop offset="0%" stop-color="#a55fc1"></stop>
            <stop offset="100%" stop-color="#a55fc1"></stop>
          </linearGradient>
        </defs>
        <g></g>
        <g></g>
        <g></g>
        <g>
          <path d="M60.209,76H7.101c8.136,13,22.514,22.937,39.16,24.168L60.209,76z" fill="url('#linearGradientSkf9hv0dhy')" stroke="none" style=""></path>
        </g>
      </svg>
    </g>
    <g transform="matrix(0.6252,0,0,0.6252,57.0819,175.8656)">
      <svg width="849.3000000000001" height="160" style="overflow: visible;">
        <defs>
          <linearGradient x1="0" y1="0.5" x2="1" y2="0.5" id="linearGradientSkf9hv0dh16">
            <stop offset="0%" stop-color="#3a3a3a"></stop>
            <stop offset="100%" stop-color="#3a3a3a"></stop>
          </linearGradient>
        </defs>
        <g transform="matrix(1,0,0,1,0,75)">
          <path d="M 82.9-70L 82.9-70L 94.1-70L 94.1-62.1L 85.4-62.1L 85.4-7.9L 94.1-7.9L 94.1 0L 69.9 0L 69.9-7.9L 77.1-7.9L 77.1-47Q 77.2-47.8  77.25-48.6Q 77.3-49.4  77.4-50.2L 77.4-50.2Q 76.6-49.1  75.8-47.9Q 75-46.7  74.2-45.6L 74.2-45.6Q 68.2-37.1  61.65-28.95Q 55.1-20.8  48.8-12.5L 48.8-12.5L 22-47.5L 20.2-50.2Q 20.3-49.4  20.35-48.6Q 20.4-47.8  20.5-47L 20.5-47L 20.5-7.9L 27.7-7.9L 27.7 0L 3.5 0L 3.5-7.9L 12.2-7.9L 12.2-62.1L 3.5-62.1L 3.5-70L 14.7-70Q 23.3-58.9  31.75-47.85Q 40.2-36.8  48.8-25.7L 48.8-25.7Q 57.4-36.8  65.85-47.85Q 74.3-58.9  82.9-70ZM 106.80000000000003 25L 106.80000000000003 17.1L 115.80000000000003 17.1Q 117.90000000000002 12.8  120.05000000000003 8.5Q 122.20000000000002 4.2  124.40000000000002 0L 124.40000000000002 0Q 120.60000000000002-7.5  116.95000000000002-14.8Q 113.30000000000003-22.1  109.50000000000003-29.6L 109.50000000000003-29.6L 101.10000000000002-29.6L 101.10000000000002-37.5L 123.30000000000003-37.5L 123.30000000000003-29.6L 118.00000000000003-29.6Q 120.90000000000002-24.1  123.80000000000003-18.55Q 126.70000000000002-13  128.60000000000002-7.4L 128.60000000000002-7.4Q 130.50000000000003-13  133.35000000000002-18.55Q 136.20000000000002-24.1  139.10000000000002-29.6L 139.10000000000002-29.6L 132.90000000000003-29.6L 132.90000000000003-37.5L 155.8-37.5L 155.8-29.6L 147.60000000000002-29.6Q 141.70000000000002-17.8  135.85000000000002-6.25Q 130.00000000000003 5.3  124.10000000000002 17.1L 124.10000000000002 17.1L 129.00000000000003 17.1L 129.00000000000003 25L 106.80000000000003 25ZM 162.79999999999998 0L 162.79999999999998-7.9L 167.29999999999998-7.9L 167.29999999999998-62.1L 162.79999999999998-62.1L 162.79999999999998-70L 185.6-70Q 190.49999999999997-70  194.54999999999998-69Q 198.59999999999997-68  201.45-65.9Q 204.29999999999998-63.8  205.89999999999998-60.45Q 207.5-57.1  207.5-52.5L 207.5-52.5Q 207.5-46.3  204.54999999999998-41.6Q 201.59999999999997-36.9  195.59999999999997-35.2L 195.59999999999997-35.2Q 198.39999999999998-34.6  201.04999999999998-33.2Q 203.7-31.8  205.64999999999998-29.6Q 207.59999999999997-27.4  208.79999999999998-24.5Q 210-21.6  210-18L 210-18Q 210-13.5  208.09999999999997-10.15Q 206.2-6.8  203.04999999999998-4.55Q 199.89999999999998-2.3  195.79999999999998-1.15Q 191.7 0  187.39999999999998 0L 187.39999999999998 0L 162.79999999999998 0ZM 185.29999999999998-31.3L 175.6-31.3L 175.6-7.9L 186.7-7.9Q 189.79999999999998-7.9  192.5-8.6Q 195.2-9.3  197.25-10.75Q 199.29999999999998-12.2  200.5-14.3Q 201.7-16.4  201.7-19.3L 201.7-19.3Q 201.7-22.4  200.29999999999998-24.7Q 198.89999999999998-27  196.64999999999998-28.45Q 194.39999999999998-29.9  191.39999999999998-30.6Q 188.39999999999998-31.3  185.29999999999998-31.3L 185.29999999999998-31.3ZM 186.2-62.1L 175.6-62.1L 175.6-39.2L 186.39999999999998-39.2Q 192.29999999999998-39.2  195.75-42.5Q 199.2-45.8  199.2-51.2L 199.2-51.2Q 199.2-57.1  195.59999999999997-59.6Q 192-62.1  186.2-62.1L 186.2-62.1ZM 217-29.6L 217-37.5L 231.9-37.5L 231.9-14.1Q 232.1-11.4  233.85-9.45Q 235.6-7.5  239.4-7.3L 239.4-7.3Q 242-7.3  244.35-8.2Q 246.7-9.1  248.5-10.7Q 250.3-12.3  251.4-14.5Q 252.5-16.7  252.5-19.3L 252.5-19.3L 252.5-29.6L 245.9-29.6L 245.9-37.5L 260.8-37.5L 260.8-7L 267-7L 267 0L 252.5 0L 252.5-5.1L 252.8-9.6Q 250.8-4.8  246.35-1.95Q 241.9 0.9  236.5 0.9L 236.5 0.9Q 230.6 0.9  227.2-2.2Q 223.8-5.3  223.6-10.3L 223.6-10.3L 223.6-29.6L 217-29.6ZM 275.2-12L 282.6-12L 282.6-8.1Q 283.8-7.6  284.95-7.45Q 286.1-7.3  287.8-7.3L 287.8-7.3Q 287.9-7.3  288.55-7.35Q 289.2-7.4  290-7.75Q 290.8-8.1  291.45-8.8Q 292.1-9.5  292.2-10.9L 292.2-10.9Q 292.3-12.7  291.2-13.65Q 290.1-14.6  288.35-15.25Q 286.6-15.9  284.5-16.55Q 282.4-17.2  280.55-18.35Q 278.7-19.5  277.5-21.6Q 276.3-23.7  276.3-27.2L 276.3-27.2Q 276.3-30.3  277.5-32.4Q 278.7-34.5  280.5-35.85Q 282.3-37.2  284.4-37.8Q 286.5-38.4  288.2-38.4L 288.2-38.4Q 289.2-38.4  290.65-38.2Q 292.1-38  293.6-37.5Q 295.1-37  296.55-36.2Q 298-35.4  299.1-34.2L 299.1-34.2L 299.1-25.5L 291.7-25.5L 291.7-29.8Q 290.2-30.3  288.7-30.3L 288.7-30.3Q 286.5-30.3  285.5-29.35Q 284.5-28.4  284.7-26.8L 284.7-26.8Q 284.9-25.6  286.2-24.85Q 287.5-24.1  289.25-23.4Q 291-22.7  293-21.8Q 295-20.9  296.7-19.55Q 298.4-18.2  299.5-16.15Q 300.6-14.1  300.6-11L 300.6-11Q 300.6-9.6  300.05-7.6Q 299.5-5.6  298.1-3.7Q 296.7-1.8  294.2-0.5Q 291.7 0.8  287.7 0.8L 287.7 0.8Q 284 0.8  280.6-0.15Q 277.2-1.1  275.2-3.3L 275.2-3.3L 275.2-12ZM 307.2 0L 307.2-7.9L 314.2-7.9L 314.2-29.6L 307.2-29.6L 307.2-37.5L 322.5-37.5L 322.5-7.9L 329.4-7.9L 329.4 0L 307.2 0ZM 313.3-52L 313.3-52Q 313.3-54.3  314.9-55.8Q 316.5-57.3  318.5-57.3L 318.5-57.3Q 320.4-57.3  322-55.8Q 323.59999999999997-54.3  323.59999999999997-52L 323.59999999999997-52Q 323.59999999999997-49.7  322-48.25Q 320.4-46.8  318.5-46.8L 318.5-46.8Q 316.5-46.8  314.9-48.25Q 313.3-49.7  313.3-52ZM 365.2 0L 365.2-7.9L 372.9-7.9L 372.9-23.4Q 372.7-26.1  370.95-28.05Q 369.2-30  365.4-30.2L 365.4-30.2Q 362.79999999999995-30.2  360.45-29.3Q 358.09999999999997-28.4  356.29999999999995-26.8Q 354.5-25.2  353.4-23Q 352.29999999999995-20.8  352.29999999999995-18.2L 352.29999999999995-18.2L 352.29999999999995-7.9L 358.59999999999997-7.9L 358.59999999999997 0L 336.4 0L 336.4-7.9L 344-7.9L 344-29.6L 337.4-29.6L 337.4-37.5L 351.29999999999995-37.5L 351.29999999999995-36.6Q 351.5-34.2  351.65-32.25Q 351.79999999999995-30.3  352-27.9L 352-27.9Q 354-32.7  358.45-35.55Q 362.9-38.4  368.29999999999995-38.4L 368.29999999999995-38.4Q 374.2-38.4  377.59999999999997-35.3Q 381-32.2  381.2-27.2L 381.2-27.2L 381.2-7.9L 387.4-7.9L 387.4 0L 365.2 0ZM 414.4-30.3L 414.4-30.3Q 409.29999999999995-30.3  406.09999999999997-27.25Q 402.9-24.2  402.7-19.6L 402.7-19.6Q 407.4-21.3  412.04999999999995-23.05Q 416.7-24.8  421.4-26.5L 421.4-26.5Q 420-28.2  418.25-29.25Q 416.5-30.3  414.4-30.3ZM 432-21.8L 432-21.8Q 425.2-19.3  418.45-16.8Q 411.7-14.3  404.9-11.8L 404.9-11.8Q 406.4-9.7  408.84999999999997-8.45Q 411.29999999999995-7.2  414.4-7.2L 414.4-7.2Q 419-7.2  422-10.4L 422-10.4L 427.09999999999997-4.4Q 424.59999999999997-1.9  421.4-0.5Q 418.2 0.9  414.4 0.9L 414.4 0.9Q 410.2 0.9  406.54999999999995-0.65Q 402.9-2.2  400.2-4.9Q 397.5-7.6  395.95-11.15Q 394.4-14.7  394.4-18.8L 394.4-18.8Q 394.4-22.8  395.95-26.4Q 397.5-30  400.2-32.65Q 402.9-35.3  406.54999999999995-36.85Q 410.2-38.4  414.4-38.4L 414.4-38.4Q 417.5-38.4  420.34999999999997-37.15Q 423.2-35.9  425.45-33.7Q 427.7-31.5  429.4-28.45Q 431.09999999999997-25.4  432-21.8ZM 440.59999999999985-12L 447.9999999999999-12L 447.9999999999999-8.1Q 449.1999999999999-7.6  450.34999999999985-7.45Q 451.4999999999999-7.3  453.1999999999999-7.3L 453.1999999999999-7.3Q 453.29999999999984-7.3  453.9499999999999-7.35Q 454.59999999999985-7.4  455.39999999999986-7.75Q 456.1999999999999-8.1  456.84999999999985-8.8Q 457.4999999999999-9.5  457.59999999999985-10.9L 457.59999999999985-10.9Q 457.6999999999999-12.7  456.59999999999985-13.65Q 455.4999999999999-14.6  453.7499999999999-15.25Q 451.9999999999999-15.9  449.89999999999986-16.55Q 447.79999999999984-17.2  445.9499999999999-18.35Q 444.09999999999985-19.5  442.89999999999986-21.6Q 441.6999999999999-23.7  441.6999999999999-27.2L 441.6999999999999-27.2Q 441.6999999999999-30.3  442.89999999999986-32.4Q 444.09999999999985-34.5  445.89999999999986-35.85Q 447.6999999999999-37.2  449.79999999999984-37.8Q 451.89999999999986-38.4  453.59999999999985-38.4L 453.59999999999985-38.4Q 454.59999999999985-38.4  456.04999999999984-38.2Q 457.4999999999999-38  458.9999999999999-37.5Q 460.4999999999999-37  461.9499999999999-36.2Q 463.39999999999986-35.4  464.4999999999999-34.2L 464.4999999999999-34.2L 464.4999999999999-25.5L 457.09999999999985-25.5L 457.09999999999985-29.8Q 455.59999999999985-30.3  454.09999999999985-30.3L 454.09999999999985-30.3Q 451.89999999999986-30.3  450.89999999999986-29.35Q 449.89999999999986-28.4  450.09999999999985-26.8L 450.09999999999985-26.8Q 450.29999999999984-25.6  451.59999999999985-24.85Q 452.89999999999986-24.1  454.64999999999986-23.4Q 456.39999999999986-22.7  458.39999999999986-21.8Q 460.39999999999986-20.9  462.09999999999985-19.55Q 463.79999999999984-18.2  464.89999999999986-16.15Q 465.9999999999999-14.1  465.9999999999999-11L 465.9999999999999-11Q 465.9999999999999-9.6  465.4499999999999-7.6Q 464.89999999999986-5.6  463.4999999999999-3.7Q 462.09999999999985-1.8  459.59999999999985-0.5Q 457.09999999999985 0.8  453.09999999999985 0.8L 453.09999999999985 0.8Q 449.39999999999986 0.8  445.9999999999999-0.15Q 442.59999999999985-1.1  440.59999999999985-3.3L 440.59999999999985-3.3L 440.59999999999985-12ZM 473.7999999999997-12L 481.19999999999976-12L 481.19999999999976-8.1Q 482.39999999999975-7.6  483.5499999999997-7.45Q 484.69999999999976-7.3  486.39999999999975-7.3L 486.39999999999975-7.3Q 486.4999999999997-7.3  487.14999999999975-7.35Q 487.7999999999997-7.4  488.59999999999974-7.75Q 489.39999999999975-8.1  490.0499999999997-8.8Q 490.69999999999976-9.5  490.7999999999997-10.9L 490.7999999999997-10.9Q 490.89999999999975-12.7  489.7999999999997-13.65Q 488.69999999999976-14.6  486.94999999999976-15.25Q 485.19999999999976-15.9  483.09999999999974-16.55Q 480.9999999999997-17.2  479.14999999999975-18.35Q 477.2999999999997-19.5  476.09999999999974-21.6Q 474.89999999999975-23.7  474.89999999999975-27.2L 474.89999999999975-27.2Q 474.89999999999975-30.3  476.09999999999974-32.4Q 477.2999999999997-34.5  479.09999999999974-35.85Q 480.89999999999975-37.2  482.9999999999997-37.8Q 485.09999999999974-38.4  486.7999999999997-38.4L 486.7999999999997-38.4Q 487.7999999999997-38.4  489.2499999999997-38.2Q 490.69999999999976-38  492.19999999999976-37.5Q 493.69999999999976-37  495.14999999999975-36.2Q 496.59999999999974-35.4  497.69999999999976-34.2L 497.69999999999976-34.2L 497.69999999999976-25.5L 490.2999999999997-25.5L 490.2999999999997-29.8Q 488.7999999999997-30.3  487.2999999999997-30.3L 487.2999999999997-30.3Q 485.09999999999974-30.3  484.09999999999974-29.35Q 483.09999999999974-28.4  483.2999999999997-26.8L 483.2999999999997-26.8Q 483.4999999999997-25.6  484.7999999999997-24.85Q 486.09999999999974-24.1  487.84999999999974-23.4Q 489.59999999999974-22.7  491.59999999999974-21.8Q 493.59999999999974-20.9  495.2999999999997-19.55Q 496.9999999999997-18.2  498.09999999999974-16.15Q 499.19999999999976-14.1  499.19999999999976-11L 499.19999999999976-11Q 499.19999999999976-9.6  498.64999999999975-7.6Q 498.09999999999974-5.6  496.69999999999976-3.7Q 495.2999999999997-1.8  492.7999999999997-0.5Q 490.2999999999997 0.8  486.2999999999997 0.8L 486.2999999999997 0.8Q 482.59999999999974 0.8  479.19999999999976-0.15Q 475.7999999999997-1.1  473.7999999999997-3.3L 473.7999999999997-3.3L 473.7999999999997-12ZM 505.7999999999997 0L 505.7999999999997-7.9L 510.2999999999997-7.9L 510.2999999999997-62.1L 505.7999999999997-62.1L 505.7999999999997-70L 526.7999999999997-70Q 530.1999999999997-70  534.3499999999997-68.95Q 538.4999999999998-67.9  542.0999999999997-65.6Q 545.6999999999997-63.3  548.0999999999997-59.7Q 550.4999999999998-56.1  550.4999999999998-51L 550.4999999999998-51Q 550.4999999999998-41.9  545.0999999999997-36.55Q 539.6999999999997-31.2  529.4999999999998-31.2L 529.4999999999998-31.2L 518.5999999999997-31.2L 518.5999999999997-7.9L 529.9999999999998-7.9L 529.9999999999998 0L 505.7999999999997 0ZM 518.5999999999997-62.1L 518.5999999999997-39.2L 527.2999999999997-39.2Q 531.6999999999997-39.2  534.5499999999997-40.35Q 537.3999999999997-41.5  539.0999999999997-43.2Q 540.7999999999997-44.9  541.4999999999998-47Q 542.1999999999997-49.1  542.1999999999997-51L 542.1999999999997-51Q 542.1999999999997-53.2  541.0499999999997-55.2Q 539.8999999999997-57.2  537.9499999999997-58.75Q 535.9999999999998-60.3  533.2499999999998-61.2Q 530.4999999999998-62.1  527.3999999999997-62.1L 527.3999999999997-62.1L 518.5999999999997-62.1ZM 557.4999999999998-18.7L 557.4999999999998-18.7Q 557.4999999999998-22.6  559.0499999999997-26.2Q 560.5999999999998-29.8  563.2999999999997-32.5Q 565.9999999999998-35.2  569.6999999999998-36.8Q 573.3999999999997-38.4  577.5999999999998-38.4L 577.5999999999998-38.4Q 580.2999999999997-38.4  582.5999999999998-37.6Q 584.8999999999997-36.8  586.5999999999998-35.85Q 588.2999999999997-34.9  589.2999999999997-34Q 590.2999999999997-33.1  590.2999999999997-32.8L 590.2999999999997-32.8Q 590.2999999999997-33.9  590.4999999999998-35.1Q 590.6999999999998-36.3  590.6999999999998-37.5L 590.6999999999998-37.5L 597.5999999999998-37.5L 597.5999999999998-7.9L 605.1999999999998-7.9L 605.1999999999998 0L 590.2999999999997 0L 590.2999999999997-2L 590.2999999999997-4Q 590.1999999999998-3.7  589.2999999999997-2.9Q 588.3999999999997-2.1  586.7499999999998-1.25Q 585.0999999999998-0.4  582.7999999999997 0.25Q 580.4999999999998 0.9  577.5999999999998 0.9L 577.5999999999998 0.9Q 573.3999999999997 0.9  569.6999999999998-0.65Q 565.9999999999998-2.2  563.2999999999997-4.9Q 560.5999999999998-7.6  559.0499999999997-11.15Q 557.4999999999998-14.7  557.4999999999998-18.7ZM 565.8999999999997-18.8L 565.8999999999997-18.8Q 565.8999999999997-13.9  569.1499999999997-10.55Q 572.3999999999997-7.2  577.5999999999998-7.2L 577.5999999999998-7.2Q 582.7999999999997-7.2  586.0499999999997-10.55Q 589.2999999999997-13.9  589.2999999999997-18.8L 589.2999999999997-18.8Q 589.2999999999997-23.8  586.0499999999997-27.05Q 582.7999999999997-30.3  577.5999999999998-30.3L 577.5999999999998-30.3Q 572.3999999999997-30.3  569.1499999999997-27.05Q 565.8999999999997-23.8  565.8999999999997-18.8ZM 612.1999999999998 0L 612.1999999999998-7.9L 619.7999999999998-7.9L 619.7999999999998-67.1L 613.1999999999998-67.1L 613.1999999999998-75L 628.0999999999998-75L 628.0999999999998-7.9L 634.3999999999999-7.9L 634.3999999999999 0L 612.1999999999998 0ZM 641.1999999999997-5.2L 641.1999999999997-5.2Q 641.1999999999997-7.5  642.7999999999997-9Q 644.3999999999997-10.5  646.3999999999997-10.5L 646.3999999999997-10.5Q 648.2999999999997-10.5  649.8999999999997-9Q 651.4999999999998-7.5  651.4999999999998-5.2L 651.4999999999998-5.2Q 651.4999999999998-2.9  649.8999999999997-1.45Q 648.2999999999997 0  646.3999999999997 0L 646.3999999999997 0Q 644.3999999999997 0  642.7999999999997-1.45Q 641.1999999999997-2.9  641.1999999999997-5.2ZM 711.6999999999997-54.6L 703.7999999999997-54.6L 703.7999999999997-60.7Q 698.7999999999997-62.9  693.3999999999997-62.9L 693.3999999999997-62.9Q 687.6999999999997-62.9  682.7499999999997-60.7Q 677.7999999999997-58.5  674.0499999999997-54.65Q 670.2999999999997-50.8  668.1499999999997-45.7Q 665.9999999999997-40.6  665.9999999999997-34.9L 665.9999999999997-34.9Q 665.9999999999997-29.2  668.1499999999997-24.1Q 670.2999999999997-19  674.0499999999997-15.25Q 677.7999999999997-11.5  682.7499999999997-9.3Q 687.6999999999997-7.1  693.3999999999997-7.1L 693.3999999999997-7.1Q 700.7999999999997-7.1  707.0999999999997-10.8L 707.0999999999997-10.8L 711.5999999999997-4.2Q 707.5999999999997-1.9  703.0499999999997-0.55Q 698.4999999999997 0.8  693.3999999999997 0.8L 693.3999999999997 0.8Q 685.9999999999997 0.8  679.4999999999997-2Q 672.9999999999997-4.8  668.1499999999997-9.65Q 663.2999999999997-14.5  660.4999999999997-21Q 657.6999999999997-27.5  657.6999999999997-34.9L 657.6999999999997-34.9Q 657.6999999999997-42.3  660.4999999999997-48.85Q 663.2999999999997-55.4  668.1499999999997-60.25Q 672.9999999999997-65.1  679.4999999999997-67.95Q 685.9999999999997-70.8  693.3999999999997-70.8L 693.3999999999997-70.8Q 698.4999999999997-70.8  703.0499999999997-69.5Q 707.5999999999997-68.2  711.6999999999997-65.8L 711.6999999999997-65.8L 711.6999999999997-54.6ZM 718.6999999999996-18.8L 718.6999999999996-18.8Q 718.6999999999996-22.8  720.2499999999995-26.4Q 721.7999999999996-30  724.4999999999995-32.65Q 727.1999999999996-35.3  730.8499999999996-36.85Q 734.4999999999995-38.4  738.6999999999996-38.4L 738.6999999999996-38.4Q 742.8999999999996-38.4  746.5999999999996-36.85Q 750.2999999999996-35.3  752.9999999999995-32.65Q 755.6999999999996-30  757.2499999999995-26.4Q 758.7999999999996-22.8  758.7999999999996-18.8L 758.7999999999996-18.8Q 758.7999999999996-14.7  757.2499999999995-11.15Q 755.6999999999996-7.6  752.9999999999995-4.9Q 750.2999999999996-2.2  746.5999999999996-0.65Q 742.8999999999996 0.9  738.6999999999996 0.9L 738.6999999999996 0.9Q 734.4999999999995 0.9  730.8499999999996-0.65Q 727.1999999999996-2.2  724.4999999999995-4.9Q 721.7999999999996-7.6  720.2499999999995-11.15Q 718.6999999999996-14.7  718.6999999999996-18.8ZM 726.9999999999995-18.7L 726.9999999999995-18.7Q 726.9999999999995-16.3  727.8999999999996-14.2Q 728.7999999999996-12.1  730.3499999999996-10.55Q 731.8999999999996-9  733.9999999999995-8.1Q 736.0999999999996-7.2  738.4999999999995-7.2L 738.4999999999995-7.2Q 740.8999999999996-7.2  742.9999999999995-8.1Q 745.0999999999996-9  746.6999999999996-10.55Q 748.2999999999996-12.1  749.1999999999996-14.2Q 750.0999999999996-16.3  750.0999999999996-18.7L 750.0999999999996-18.7Q 750.0999999999996-21.1  749.1999999999996-23.2Q 748.2999999999996-25.3  746.6999999999996-26.9Q 745.0999999999996-28.5  742.9999999999995-29.4Q 740.8999999999996-30.3  738.4999999999995-30.3L 738.4999999999995-30.3Q 736.0999999999996-30.3  733.9999999999995-29.4Q 731.8999999999996-28.5  730.3499999999996-26.9Q 728.7999999999996-25.3  727.8999999999996-23.2Q 726.9999999999995-21.1  726.9999999999995-18.7ZM 823.5999999999995 0L 823.5999999999995-7.9L 831.1999999999995-7.9L 831.1999999999995-23.4Q 830.9999999999995-26.1  829.2499999999995-28.05Q 827.4999999999995-30  823.6999999999995-30.2L 823.6999999999995-30.2Q 821.0999999999995-30.2  818.7499999999995-29.3Q 816.3999999999995-28.4  814.5999999999995-26.8Q 812.7999999999995-25.2  811.6999999999995-23Q 810.5999999999995-20.8  810.5999999999995-18.2L 810.5999999999995-18.2L 810.5999999999995-7.9L 816.8999999999995-7.9L 816.8999999999995 0L 794.6999999999995 0L 794.6999999999995-7.9L 802.2999999999995-7.9L 802.2999999999995-23.4Q 802.0999999999995-26.1  800.3499999999995-28.05Q 798.5999999999995-30  794.7999999999995-30.2L 794.7999999999995-30.2Q 792.1999999999995-30.2  789.8499999999995-29.3Q 787.4999999999995-28.4  785.6999999999995-26.8Q 783.8999999999995-25.2  782.7999999999995-23Q 781.6999999999995-20.8  781.6999999999995-18.2L 781.6999999999995-18.2L 781.6999999999995-7.9L 787.9999999999995-7.9L 787.9999999999995 0L 765.7999999999995 0L 765.7999999999995-7.9L 773.3999999999995-7.9L 773.3999999999995-29.6L 766.7999999999995-29.6L 766.7999999999995-37.5L 780.6999999999995-37.5L 780.6999999999995-36.6Q 780.8999999999995-34.2  781.0499999999995-32.25Q 781.1999999999995-30.3  781.3999999999995-27.9L 781.3999999999995-27.9Q 783.4999999999995-32.7  787.7499999999995-35.45Q 791.9999999999995-38.2  797.6999999999995-38.4L 797.6999999999995-38.4Q 803.1999999999995-38.4  806.5499999999995-35.65Q 809.8999999999995-32.9  810.4999999999995-28.4L 810.4999999999995-28.4Q 812.6999999999995-33  816.8999999999995-35.6Q 821.0999999999995-38.2  826.5999999999995-38.4L 826.5999999999995-38.4Q 832.4999999999995-38.4  835.8999999999995-35.3Q 839.2999999999995-32.2  839.4999999999995-27.2L 839.4999999999995-27.2L 839.4999999999995-7.9L 845.7999999999995-7.9L 845.7999999999995 0L 823.5999999999995 0Z" data-textpath="MyBusinessPal.Com" data-text-anchor="middle" data-font-size="100" data-letterspacing="0" data-side="left" data-offset="0.5" data-dx="0" data-dy="0" data-xmlspace="preserve" data-href="" data-font="Josefin Slab" data-font-src="/Content/clientfonts/josefinslab-bold.woff" data-font-scale="contain" transform="translate(0,0)" data-x="0" data-y="0" fill="url('#linearGradientSkf9hv0dh16')"></path>
        </g>
      </svg>
    </g>
  </g>
</svg>